<svg width="120" height="161" viewBox="0 0 120 161" fill="none" xmlns="http://www.w3.org/2000/svg">
<path fill-rule="evenodd" clip-rule="evenodd" d="M110 33H10V151C10 156.523 14.4772 161 20 161H100C105.523 161 110 156.523 110 151V33ZM30 54.3333C24.4772 54.3333 20 58.8105 20 64.3333V129.667C20 135.19 24.4772 139.667 30 139.667C35.5228 139.667 40 135.19 40 129.667V64.3333C40 58.8105 35.5228 54.3333 30 54.3333ZM50 72.8667C50 67.3438 54.4772 62.8667 60 62.8667C65.5228 62.8667 70 67.3438 70 72.8667V121.133C70 126.656 65.5228 131.133 60 131.133C54.4772 131.133 50 126.656 50 121.133V72.8667ZM90 54.3333C84.4771 54.3333 80 58.8105 80 64.3333V129.667C80 135.19 84.4771 139.667 90 139.667C95.5229 139.667 100 135.19 100 129.667V64.3333C100 58.8105 95.5229 54.3333 90 54.3333Z" fill="white"/>
<path d="M120 30L0 30V16C0 13.2386 2.23858 11 5 11L115 11C117.761 11 120 13.2386 120 16V30Z" fill="white"/>
<circle cx="60" cy="10" r="10" fill="white"/>
</svg>
